<svg width="522" height="479" viewBox="0 0 522 479" fill="none" xmlns="http://www.w3.org/2000/svg">
<path d="M0.19751 85.7338C0.19751 85.7338 -6.12225 -2.59785 97.9879 0.0587438C163.434 1.7324 217.066 95.0318 324.17 140.858C380.436 164.927 616.21 203.952 480.501 449.022C480.501 449.022 33.8863 516.472 6.41083 449.022C-19.4636 385.503 41.8719 341.103 33.8863 275.58C20.3811 164.77 0.19751 85.7338 0.19751 85.7338Z" fill="url(#paint0_linear_18_329)"/>
<path d="M303.334 385.135C300.342 392.995 295.902 400.224 290.244 406.447C287.661 409.291 284.87 411.94 281.895 414.371C280.48 415.532 279.065 416.635 277.65 417.64C276.235 418.645 274.82 419.579 273.404 420.47C270.899 422.055 268.305 423.496 265.636 424.786C263.568 425.839 261.447 426.783 259.282 427.617C255.645 429.032 253.437 429.584 253.437 429.584C253.437 429.584 253.098 427.277 252.786 423.484C252.659 421.574 252.503 419.31 252.319 416.763C252.135 414.216 252.093 411.414 251.994 408.399C251.994 406.885 251.994 405.343 251.994 403.772C251.994 402.201 251.994 400.56 251.994 398.918C252.135 395.649 252.234 392.225 252.631 388.828C253.687 374.671 258.688 361.092 267.065 349.63C268.975 346.8 271.112 344.111 273.121 341.521C274.14 340.248 275.187 339.003 276.221 337.8C277.254 336.597 278.244 335.408 279.235 334.29C281.272 332.054 283.14 329.96 284.895 328.12L289.593 323.295C292.268 320.606 294.037 319.05 294.037 319.05C294.037 319.05 295.339 320.917 297.207 324.328C298.155 326.04 299.216 328.135 300.263 330.569C301.466 333.274 302.51 336.048 303.391 338.875C303.872 340.418 304.339 342.031 304.806 343.729C305.273 345.427 305.57 347.154 305.909 348.951C306.603 352.731 307.02 356.558 307.155 360.399C307.438 368.811 306.142 377.201 303.334 385.135Z" fill="url(#paint1_linear_18_329)"/>
<path d="M307.112 364.743V363.427C305.4 364.305 303.193 365.507 300.73 367.008C298.268 368.508 295.438 370.276 292.636 372.328C286.427 376.639 280.927 381.891 276.334 387.895C279.277 381.003 281.839 373.97 284.131 366.838C284.586 365.408 285.144 364.012 285.801 362.663C286.401 361.332 287.096 360.045 287.881 358.814C289.391 356.413 291.11 354.149 293.018 352.05C294.819 350.055 296.732 348.165 298.749 346.389C300.674 344.72 302.598 343.262 304.296 342.003L303.957 340.842C298.537 344.833 291.221 350.861 286.523 358.842C290.194 346.02 292.843 332.927 294.447 319.686L293.994 318.979L293.358 319.559C291.759 332.766 289.119 345.826 285.461 358.616C285.645 349.305 281.556 340.984 277.89 335.776L277.169 336.611C278.438 338.451 279.564 340.386 280.537 342.399C281.68 344.706 282.586 347.125 283.24 349.616C283.973 352.291 284.353 355.05 284.372 357.823C284.373 359.271 284.283 360.717 284.103 362.154C283.868 363.63 283.522 365.087 283.07 366.512C280.791 373.588 278.23 380.663 275.315 387.484C276.409 380.186 275.624 372.73 273.037 365.819C271.987 362.966 270.719 360.199 269.244 357.54C268.122 355.553 266.889 353.63 265.551 351.781L264.942 352.729C268.727 358.005 271.54 363.914 273.249 370.177C275.737 378.68 275.156 387.787 271.607 395.904C270.348 398.621 269.004 401.296 267.688 403.984C266.372 406.673 264.956 409.333 263.442 411.923C266.103 402.428 264.588 392.805 262.169 385.616C260.601 380.953 258.421 376.518 255.687 372.427L255.32 373.729C258.711 379.095 261.175 384.994 262.607 391.178C264.546 399.668 264.475 410.522 258.829 419.89C257.088 422.876 255.178 425.749 253.324 428.65L253.437 429.499L254.329 429.23C256.197 426.315 258.121 423.428 259.862 420.428C265.522 411.116 274.013 404.862 282.079 400.107C285.695 398.027 289.417 396.138 293.23 394.446C296.457 393.031 299.103 392.055 300.518 391.616L301.226 390.13C296.265 391.865 291.433 393.946 286.763 396.357C279.518 400.05 271.112 405.201 264.489 412.475C266.004 409.871 267.32 407.154 268.735 404.508C270.15 401.862 271.409 399.116 272.683 396.385C276.702 387.753 283.155 381.201 289.735 375.951C295.187 371.711 301.002 367.961 307.112 364.743Z" fill="white"/>
<path d="M175.692 383.762C177.584 388.521 178.937 393.476 179.725 398.536C180.262 400.984 180.531 403.56 180.942 405.965C181.126 407.182 181.267 408.414 181.409 409.616C181.55 410.819 181.748 411.937 181.89 413.083C182.144 415.404 182.47 417.513 182.71 419.48C182.824 420.47 182.937 421.418 183.036 422.31C183.135 423.201 183.277 423.966 183.376 424.701C183.772 427.645 183.927 429.513 183.927 429.513C182.301 429.425 180.681 429.25 179.074 428.989C178.295 428.876 177.446 428.735 176.526 428.551C175.607 428.367 174.659 428.098 173.696 427.801C171.373 427.183 169.102 426.383 166.904 425.409C165.687 424.885 164.441 424.305 163.154 423.668C161.866 423.032 160.649 422.253 159.361 421.433C156.661 419.723 154.118 417.776 151.762 415.617C146.487 410.85 142.361 404.949 139.694 398.359C137.027 391.768 135.889 384.658 136.366 377.564C136.552 374.368 137.026 371.195 137.781 368.083C138.149 366.668 138.517 365.253 138.955 363.838C139.394 362.423 139.932 361.191 140.37 359.974C141.275 357.749 142.349 355.597 143.583 353.536C144.135 352.616 144.644 351.767 145.154 350.989C145.663 350.21 146.201 349.573 146.668 348.908C147.639 347.601 148.683 346.349 149.795 345.158C149.795 345.158 150.984 346.573 152.753 348.993L154.168 350.946L155.894 353.196C157.083 354.781 158.314 356.522 159.743 358.361C160.437 359.281 161.158 360.229 161.823 361.192C162.489 362.154 163.239 363.144 164.017 364.149C165.432 366.159 166.989 368.196 168.262 370.333C171.23 374.52 173.722 379.024 175.692 383.762Z" fill="url(#paint2_linear_18_329)"/>
<path d="M169.847 372.625L169.394 371.918C168.27 373.264 167.234 374.682 166.295 376.163C165.068 378.186 164.03 380.318 163.196 382.531C161.126 387.918 160.697 393.797 161.964 399.428C159.273 394.174 157.034 388.702 155.271 383.069C154.913 381.946 154.648 380.796 154.479 379.63C154.359 378.498 154.316 377.358 154.351 376.22C154.421 374.044 154.822 371.892 155.54 369.838C156.168 367.933 157.028 366.113 158.101 364.418C158.985 362.932 160.009 361.535 161.158 360.243L160.677 359.564C156.268 364.275 153.715 370.423 153.488 376.871C150.873 366.711 149.777 356.22 150.233 345.738L149.809 345.215L149.37 345.696C148.903 356.262 150.005 366.84 152.639 377.083C149.073 370.701 143.695 365.394 139.747 361.644L139.393 362.564C140.61 363.753 142.054 365.083 143.483 366.569C144.912 368.055 146.313 369.668 147.728 371.394C149.13 373.168 150.416 375.03 151.578 376.97C152.709 379.024 153.656 381.174 154.408 383.394C156.188 389.05 158.442 394.546 161.144 399.824C157.145 395.297 152.628 391.255 147.686 387.781C145.464 386.097 143.214 384.597 141.233 383.309C139.252 382.022 137.568 380.932 136.209 380.125V381.229C141.001 384.133 145.635 387.288 150.092 390.682C152.858 392.808 155.469 395.13 157.903 397.63C159.191 398.888 160.384 400.241 161.469 401.678C162.641 403.115 163.696 404.643 164.625 406.248C165.828 408.3 167.158 410.296 168.46 412.291L170.554 415.192C171.233 416.168 171.969 417.116 172.719 418.022C166.801 413.591 160.337 409.938 153.488 407.154C150.502 405.838 147.828 404.748 145.662 403.984C143.497 403.22 142.082 402.682 141.544 402.569L142.195 403.8C143.327 404.211 145.535 404.918 148.21 405.979C149.625 406.503 151.04 407.126 152.582 407.777C154.125 408.428 155.837 409.192 157.521 409.984C164.37 413.225 171.672 417.286 177.446 423.654C179.243 425.734 181.238 427.602 183.191 429.541H183.856L183.785 428.862C181.861 426.937 179.866 425.083 178.125 423.017C177.408 422.24 176.742 421.417 176.13 420.555C175.564 419.678 175.054 418.772 174.587 417.866C174.127 416.977 173.72 416.06 173.37 415.121C173.059 414.173 172.776 413.225 172.549 412.291C172.323 411.357 172.153 410.409 172.012 409.461C171.87 408.513 171.842 407.564 171.814 406.63C171.747 404.861 171.846 403.089 172.111 401.338C172.345 399.747 172.68 398.173 173.115 396.626C173.506 395.277 173.979 393.954 174.531 392.663C175.248 390.948 176.1 389.292 177.078 387.71L176.781 386.776C176.066 387.846 175.414 388.957 174.828 390.102C173.71 392.332 172.805 394.664 172.125 397.064C170.18 403.802 170.64 411.007 173.427 417.442C172.663 416.536 172.012 415.574 171.29 414.612L169.21 411.781C167.922 409.8 166.606 407.833 165.403 405.796C164.486 404.21 163.741 402.53 163.181 400.786C162.691 399.102 162.345 397.378 162.148 395.635C161.874 392.355 162.166 389.052 163.012 385.871C164.296 381.031 166.613 376.527 169.804 372.668L169.847 372.625Z" fill="white"/>
<path d="M487.822 384.866C485.688 390.671 482.836 396.186 479.331 401.281C477.732 403.829 475.878 406.248 474.194 408.583C473.317 409.758 472.425 410.89 471.548 411.994C470.671 413.098 469.836 414.173 468.987 415.206C467.26 417.272 465.689 419.211 464.204 420.937L460.227 425.466C457.977 428.013 456.477 429.499 456.477 429.499C456.477 429.499 455.218 427.9 453.35 424.928C452.232 423.167 451.216 421.343 450.307 419.466C449.088 417.084 448.024 414.626 447.123 412.107C446.628 410.692 446.147 409.277 445.708 407.763C445.269 406.248 444.901 404.678 444.534 403.05C443.794 399.63 443.321 396.157 443.118 392.663C442.576 384.985 443.628 377.278 446.207 370.026C448.785 362.774 452.836 356.133 458.104 350.522C460.473 347.962 463.042 345.596 465.788 343.446C467.09 342.413 468.378 341.437 469.68 340.616C470.982 339.795 472.284 338.918 473.543 338.168C475.824 336.793 478.187 335.56 480.619 334.474C484.196 332.843 487.921 331.554 491.741 330.625C491.741 330.625 491.968 332.719 492.095 336.116C492.095 337.828 492.223 339.866 492.308 342.13C492.392 344.394 492.308 346.899 492.392 349.602C492.392 350.946 492.392 352.319 492.322 353.706C492.251 355.092 492.322 356.536 492.223 357.951C492.053 360.781 491.954 363.866 491.572 366.852C491.079 372.99 489.819 379.042 487.822 384.866Z" fill="url(#paint3_linear_18_329)"/>
<path d="M491.302 370.064L491.43 369.073C489.447 369.525 487.491 370.088 485.571 370.757C483.026 371.689 480.561 372.825 478.199 374.154C472.422 377.359 467.601 382.042 464.231 387.725C466.101 381.302 468.331 374.99 470.911 368.819C471.434 367.584 472.044 366.387 472.736 365.239C473.453 364.153 474.243 363.118 475.099 362.139C476.733 360.267 478.614 358.625 480.689 357.257C482.596 355.971 484.636 354.894 486.774 354.045C488.606 353.275 490.5 352.66 492.435 352.205C492.435 351.88 492.435 351.554 492.435 351.229C485.231 352.73 478.708 356.523 473.84 362.04C478.836 351.22 484.874 340.912 491.868 331.262C491.868 330.767 491.798 330.498 491.798 330.498L491.076 330.682C484.034 340.374 477.962 350.735 472.948 361.616C474.364 353.422 473.118 345.017 471.915 338.974L470.982 339.569C471.349 341.436 471.774 343.587 472.057 345.866C472.358 348.256 472.537 350.66 472.595 353.069C472.627 355.616 472.456 358.162 472.085 360.682C471.885 361.982 471.601 363.267 471.236 364.531C470.899 365.838 470.468 367.12 469.948 368.366C467.354 374.568 465.114 380.914 463.241 387.371C463.444 380.587 462.667 373.81 460.934 367.248C460.227 364.206 459.349 361.333 458.514 358.842C457.68 356.352 456.958 354.229 456.321 352.602L455.557 353.536C457.82 359.366 459.618 365.366 460.934 371.479C462.742 379.361 462.8 387.544 461.104 395.451C460.453 398.083 459.901 400.729 459.335 403.376C458.769 406.022 458.288 408.682 457.92 411.357C457.031 403.088 454.784 395.022 451.269 387.484C449.392 383.103 447.232 378.848 444.802 374.748L444.434 376.163C445.113 377.338 446.401 379.545 447.83 382.418C449.26 385.291 450.901 388.828 452.387 392.734C455.401 400.63 457.892 409.814 456.845 419.522C456.462 422.607 456.293 425.72 456.052 428.819L456.505 429.428L457.043 428.876C457.283 425.791 457.453 422.706 457.835 419.635C458.882 409.857 464.911 402.187 470.996 397.376C473.736 395.212 476.718 393.375 479.883 391.899C481.827 390.961 483.837 390.167 485.897 389.522L486.392 388.432C482.174 389.643 478.148 391.444 474.434 393.781C467.537 397.908 462.096 404.081 458.868 411.442C459.222 408.767 459.802 406.149 460.283 403.489C460.764 400.828 461.401 398.239 462.052 395.621C464.109 387.958 468.895 381.31 475.51 376.927C480.293 373.662 485.652 371.333 491.302 370.064Z" fill="white"/>
<path d="M451.227 393.258C449.244 397.915 446.712 402.319 443.685 406.376C442.27 408.414 440.699 410.352 439.255 412.248C438.519 413.197 437.741 414.102 436.991 415.008C436.241 415.914 435.576 416.777 434.826 417.626L430.779 422.338L428.968 424.362L427.439 426.117C425.557 428.239 424.312 429.499 424.312 429.499C423.365 428.274 422.487 426.998 421.68 425.678C421.284 425.055 420.859 424.348 420.42 423.584C419.982 422.819 419.571 421.97 419.118 421.065C418.117 419.039 417.252 416.95 416.529 414.81C416.118 413.635 415.736 412.404 415.368 411.102C415 409.8 414.746 408.484 414.477 407.083C413.907 404.158 413.59 401.19 413.529 398.211C413.305 391.626 414.502 385.07 417.039 378.99C419.576 372.909 423.394 367.447 428.232 362.974C430.398 360.935 432.727 359.075 435.194 357.413C436.383 356.621 437.543 355.885 438.689 355.22C439.836 354.555 441.024 353.989 442.128 353.451C444.162 352.455 446.261 351.6 448.411 350.889C449.373 350.564 450.265 350.281 451.114 350.04C451.963 349.8 452.77 349.616 453.477 349.46C454.986 349.112 456.511 348.842 458.048 348.654C458.048 348.654 458.048 350.422 457.85 353.253C457.85 353.96 457.751 354.739 457.68 355.573C457.609 356.408 457.581 357.328 457.51 358.276C457.369 360.187 457.199 362.267 457.015 364.474C456.916 365.578 456.803 366.71 456.675 367.857C456.548 369.003 456.449 370.206 456.307 371.409C455.968 373.758 455.727 376.262 455.246 378.682C454.491 383.683 453.142 388.576 451.227 393.258Z" fill="url(#paint4_linear_18_329)"/>
<path d="M454.764 381.343L454.92 380.536C453.245 380.777 451.587 381.117 449.953 381.555C447.783 382.172 445.667 382.967 443.627 383.932C438.641 386.298 434.408 390.002 431.401 394.63C433.173 389.299 435.315 384.097 437.811 379.064C438.306 378.054 438.879 377.084 439.524 376.163C440.188 375.303 440.907 374.485 441.675 373.715C443.152 372.247 444.829 370.994 446.656 369.993C448.327 369.056 450.098 368.306 451.934 367.758C453.517 367.255 455.141 366.895 456.788 366.682L456.873 365.875C450.759 366.534 445.048 369.242 440.67 373.559C445.506 364.812 451.358 356.666 458.104 349.29V348.654L457.481 348.724C450.713 356.164 444.847 364.376 440.005 373.192C441.312 366.937 441.556 360.508 440.726 354.172L439.906 354.597C440.047 356.196 440.245 358.036 440.316 359.974C440.387 361.913 440.316 363.951 440.245 366.059C440.1 368.201 439.798 370.33 439.34 372.427C439.097 373.499 438.785 374.553 438.406 375.583C438.042 376.661 437.612 377.715 437.118 378.739C434.611 383.773 432.455 388.974 430.665 394.305C431.078 388.59 430.726 382.846 429.618 377.225C429.193 374.621 428.627 372.159 428.075 369.993C427.523 367.828 427.056 366.003 426.66 364.588L425.967 365.352C427.46 370.414 428.605 375.572 429.391 380.791C430.519 387.495 430.254 394.359 428.613 400.956C428.005 403.135 427.481 405.357 426.943 407.55C426.406 409.744 425.967 411.994 425.641 414.23C424.994 407.258 423.305 400.422 420.632 393.951C419.2 390.193 417.561 386.518 415.721 382.942L415.339 384.173C415.849 385.206 416.839 387.13 417.929 389.607C419.019 392.083 420.264 395.154 421.396 398.494C423.688 405.258 425.641 412.998 424.679 421.135C424.325 423.725 424.198 426.329 424.014 428.933L424.396 429.442L424.849 428.975C425.033 426.385 425.16 423.796 425.5 421.22C426.42 413.041 431.613 406.701 436.821 402.895C439.167 401.177 441.715 399.752 444.406 398.649C446.062 397.957 447.77 397.394 449.514 396.965L449.953 396.088C446.36 396.906 442.907 398.25 439.708 400.079C433.812 403.285 429.119 408.321 426.335 414.428C426.66 412.192 427.212 410.013 427.637 407.791C428.061 405.569 428.684 403.404 429.292 401.239C431.211 394.879 435.482 389.489 441.236 386.168C445.374 383.664 449.975 382.022 454.764 381.343Z" fill="white"/>
<path d="M192.899 146.208C192.22 145.982 191.484 145.784 190.861 145.586" stroke="#1D325F" stroke-miterlimit="10"/>
<path d="M186.729 144.496C140.37 134.237 103.153 179.265 120.219 216.978C138.616 257.79 186.644 221.818 166.833 210.596C156.927 204.935 137.951 216.171 131.455 233.351C123.248 255.115 119.809 271.813 124.663 296.917C134.441 347.55 182.682 377.578 226.55 347.422C248.669 332.252 270.574 307.163 303.858 305.167" stroke="#1D325F" stroke-miterlimit="10" stroke-dasharray="3.02 3.02"/>
<path d="M306.051 305.082C306.749 305.082 307.456 305.082 308.173 305.082" stroke="#1D325F" stroke-miterlimit="10"/>
<path d="M219.758 143.095C219.76 140.334 219.456 137.581 218.852 134.887C218.648 134.003 218.733 133.076 219.095 132.243C219.457 131.41 220.076 130.715 220.862 130.26L224.569 128.109C225.542 127.547 226.252 126.622 226.543 125.537C226.835 124.452 226.685 123.296 226.126 122.321L222.206 115.529C221.928 115.045 221.556 114.622 221.114 114.282C220.672 113.942 220.167 113.692 219.628 113.548C219.089 113.403 218.527 113.366 217.974 113.439C217.421 113.512 216.887 113.693 216.404 113.972L212.682 116.123C211.895 116.575 210.984 116.762 210.082 116.657C209.181 116.553 208.336 116.162 207.673 115.543C203.619 111.797 198.786 108.995 193.522 107.335C192.655 107.073 191.895 106.539 191.352 105.814C190.81 105.088 190.514 104.208 190.508 103.302V99.0568C190.508 97.9309 190.06 96.8511 189.264 96.055C188.468 95.2588 187.388 94.8115 186.262 94.8115H178.409C177.283 94.8115 176.203 95.2588 175.407 96.055C174.61 96.8511 174.163 97.9309 174.163 99.0568V103.302C174.157 104.208 173.861 105.088 173.319 105.814C172.776 106.539 172.016 107.073 171.149 107.335C165.883 108.991 161.05 111.794 156.998 115.543C156.335 116.162 155.49 116.553 154.589 116.657C153.687 116.762 152.776 116.575 151.988 116.123L148.196 113.972C147.222 113.413 146.065 113.263 144.98 113.555C143.896 113.846 142.971 114.556 142.408 115.529L138.488 122.321C137.928 123.294 137.776 124.449 138.065 125.534C138.354 126.618 139.061 127.544 140.031 128.109L143.753 130.26C144.538 130.715 145.157 131.41 145.519 132.243C145.881 133.076 145.966 134.003 145.762 134.887C144.555 140.288 144.555 145.888 145.762 151.288C145.966 152.173 145.881 153.1 145.519 153.933C145.157 154.766 144.538 155.461 143.753 155.916L140.031 158.067C139.061 158.632 138.354 159.558 138.065 160.642C137.776 161.727 137.928 162.882 138.488 163.855L142.408 170.661C142.973 171.631 143.899 172.338 144.984 172.627C146.068 172.916 147.223 172.764 148.196 172.204L151.932 170.053C152.719 169.601 153.631 169.414 154.532 169.518C155.434 169.623 156.278 170.013 156.941 170.633C160.994 174.381 165.827 177.185 171.092 178.841C171.962 179.104 172.724 179.639 173.266 180.368C173.809 181.096 174.103 181.98 174.107 182.888V187.133C174.107 188.259 174.554 189.339 175.35 190.135C176.146 190.931 177.226 191.378 178.352 191.378H186.206C187.332 191.378 188.412 190.931 189.208 190.135C190.004 189.339 190.451 188.259 190.451 187.133V182.888C190.454 181.98 190.749 181.096 191.292 180.368C191.834 179.639 192.596 179.104 193.465 178.841C198.73 177.181 203.562 174.378 207.616 170.633C208.28 170.013 209.124 169.623 210.026 169.518C210.927 169.414 211.838 169.601 212.626 170.053L216.348 172.204C217.321 172.769 218.48 172.923 219.568 172.634C220.656 172.345 221.585 171.635 222.149 170.661L226.069 163.855C226.628 162.88 226.779 161.724 226.487 160.639C226.195 159.554 225.485 158.629 224.513 158.067L220.805 155.916C220.019 155.461 219.4 154.766 219.039 153.933C218.677 153.1 218.592 152.173 218.796 151.288C219.419 148.601 219.742 145.853 219.758 143.095ZM182.3 162.256C178.511 162.253 174.808 161.127 171.659 159.02C168.51 156.912 166.056 153.919 164.608 150.418C163.16 146.916 162.783 143.064 163.524 139.348C164.264 135.632 166.09 132.22 168.771 129.541C171.451 126.863 174.865 125.04 178.581 124.302C182.298 123.563 186.15 123.944 189.65 125.394C193.15 126.845 196.142 129.301 198.247 132.451C200.351 135.602 201.475 139.306 201.475 143.095C201.475 145.612 200.979 148.105 200.015 150.431C199.051 152.756 197.638 154.869 195.858 156.649C194.077 158.428 191.963 159.839 189.637 160.801C187.311 161.763 184.817 162.257 182.3 162.256Z" fill="white"/>
<path d="M275.357 160.699C275.358 158.567 275.126 156.441 274.664 154.359C274.507 153.676 274.572 152.961 274.85 152.317C275.127 151.673 275.602 151.134 276.207 150.779L279.037 149.123C279.41 148.908 279.738 148.621 280.001 148.279C280.263 147.937 280.456 147.546 280.568 147.13C280.679 146.713 280.708 146.279 280.652 145.851C280.595 145.423 280.455 145.011 280.24 144.638L277.211 139.388C276.996 139.014 276.709 138.686 276.367 138.424C276.025 138.161 275.634 137.968 275.218 137.857C274.801 137.745 274.366 137.716 273.939 137.773C273.511 137.829 273.099 137.969 272.725 138.185L269.895 139.854C269.285 140.202 268.58 140.345 267.882 140.264C267.185 140.182 266.532 139.88 266.018 139.402C262.87 136.505 259.12 134.34 255.037 133.062C254.367 132.857 253.78 132.442 253.362 131.88C252.945 131.317 252.718 130.635 252.716 129.935V126.609C252.716 125.738 252.37 124.903 251.754 124.288C251.139 123.672 250.303 123.326 249.433 123.326H243.376C242.505 123.326 241.67 123.672 241.055 124.288C240.439 124.903 240.093 125.738 240.093 126.609V129.935C240.091 130.635 239.864 131.317 239.446 131.88C239.029 132.442 238.442 132.857 237.772 133.062C233.689 134.34 229.939 136.505 226.791 139.402C226.277 139.88 225.624 140.182 224.927 140.264C224.229 140.345 223.524 140.202 222.914 139.854L220.083 138.185C219.71 137.969 219.298 137.829 218.87 137.773C218.442 137.716 218.008 137.745 217.591 137.857C217.175 137.968 216.784 138.161 216.442 138.424C216.1 138.686 215.813 139.014 215.598 139.388L212.569 144.638C212.354 145.011 212.214 145.423 212.157 145.851C212.101 146.279 212.129 146.713 212.241 147.13C212.353 147.546 212.546 147.937 212.808 148.279C213.071 148.621 213.398 148.908 213.772 149.123L216.602 150.779C217.207 151.134 217.682 151.673 217.959 152.317C218.237 152.961 218.302 153.676 218.145 154.359C217.212 158.553 217.212 162.901 218.145 167.095C218.302 167.779 218.237 168.494 217.959 169.138C217.682 169.782 217.207 170.32 216.602 170.676L213.772 172.331C213.398 172.547 213.071 172.834 212.808 173.176C212.546 173.518 212.353 173.908 212.241 174.325C212.129 174.742 212.101 175.176 212.157 175.604C212.214 176.031 212.354 176.444 212.569 176.817L215.598 182.067C215.813 182.441 216.1 182.768 216.442 183.031C216.784 183.294 217.175 183.486 217.591 183.598C218.008 183.71 218.442 183.738 218.87 183.682C219.298 183.626 219.71 183.486 220.083 183.27L222.914 181.6C223.524 181.253 224.229 181.11 224.927 181.191C225.624 181.273 226.277 181.574 226.791 182.053C229.936 184.955 233.687 187.121 237.772 188.393C238.441 188.6 239.026 189.015 239.444 189.577C239.861 190.139 240.088 190.82 240.093 191.52V194.846C240.093 195.716 240.439 196.551 241.055 197.167C241.67 197.783 242.505 198.129 243.376 198.129H249.433C250.303 198.129 251.139 197.783 251.754 197.167C252.37 196.551 252.716 195.716 252.716 194.846V191.492C252.72 190.792 252.948 190.111 253.365 189.549C253.782 188.987 254.368 188.572 255.037 188.364C259.122 187.092 262.873 184.927 266.018 182.025C266.533 181.548 267.187 181.249 267.885 181.17C268.582 181.091 269.286 181.237 269.895 181.586L272.725 183.256C273.099 183.472 273.511 183.612 273.939 183.668C274.366 183.724 274.801 183.696 275.218 183.584C275.634 183.472 276.025 183.279 276.367 183.017C276.709 182.754 276.996 182.427 277.211 182.053L280.24 176.803C280.455 176.429 280.595 176.017 280.652 175.59C280.708 175.162 280.679 174.727 280.568 174.311C280.456 173.894 280.263 173.504 280.001 173.162C279.738 172.819 279.41 172.533 279.037 172.317L276.207 170.661C275.602 170.306 275.127 169.767 274.85 169.124C274.572 168.48 274.507 167.764 274.664 167.081C275.129 164.986 275.362 162.845 275.357 160.699ZM246.404 175.515C243.474 175.515 240.609 174.646 238.173 173.018C235.736 171.39 233.837 169.076 232.716 166.369C231.595 163.662 231.301 160.683 231.873 157.809C232.445 154.934 233.856 152.294 235.928 150.222C238 148.15 240.64 146.739 243.514 146.168C246.388 145.596 249.367 145.889 252.074 147.011C254.782 148.132 257.096 150.031 258.724 152.468C260.352 154.904 261.221 157.769 261.221 160.699C261.221 164.629 259.66 168.397 256.881 171.176C254.102 173.954 250.334 175.515 246.404 175.515Z" fill="#264196"/>
<path d="M209.654 153.991C210.234 154.331 210.857 154.671 211.508 155.01" stroke="#1D325F" stroke-miterlimit="10"/>
<path d="M215.371 156.822C228.348 162.298 250.041 166.303 261.221 156.822C274.282 145.741 274.466 121.444 264.221 107.661C260.343 102.453 252.588 98.3635 247.678 102.595C243.433 106.274 244.989 113.618 249.093 117.538C256.834 125.024 270.023 123.821 279.037 117.934C308.23 98.9013 332.443 76.7265 364.835 69.5661C404.642 60.75 437.501 80.5049 425.387 108.821C419.939 121.557 414.222 134.52 412.651 148.289C411.08 162.057 416.897 178.26 430.057 182.435C438.463 185.095 447.491 182.294 456.053 180.199C464.614 178.105 474.449 176.973 481.524 182.237C488.6 187.501 491.204 198.864 487.029 206.902C477.124 225.921 428.033 231.242 422.755 254.86" stroke="#1D325F" stroke-miterlimit="10" stroke-dasharray="3.02 3.02"/>
<path d="M422.316 256.955C422.242 257.66 422.205 258.368 422.203 259.077" stroke="#1D325F" stroke-miterlimit="10"/>
<path d="M446.189 97.472H378.929C374.92 97.472 371.669 100.722 371.669 104.732V200.421C371.669 204.43 374.92 207.681 378.929 207.681H446.189C450.198 207.681 453.448 204.43 453.448 200.421V104.732C453.448 100.722 450.198 97.472 446.189 97.472Z" fill="white"/>
<path d="M378.929 97.472H446.189C448.114 97.472 449.961 98.2369 451.322 99.5983C452.683 100.96 453.448 102.806 453.448 104.732V200.421C453.445 202.344 452.678 204.187 451.317 205.545C449.956 206.904 448.112 207.666 446.189 207.666" stroke="#00030E" stroke-width="0.25" stroke-miterlimit="10" stroke-linecap="round"/>
<path d="M432.377 127.048H384.589V130.968H432.377V127.048Z" fill="#B8C1C9"/>
<path d="M432.377 142.147H384.589V146.067H432.377V142.147Z" fill="#B8C1C9"/>
<path d="M432.377 157.232H384.589V161.152H432.377V157.232Z" fill="#B8C1C9"/>
<path d="M432.377 172.317H384.589V176.237H432.377V172.317Z" fill="#B8C1C9"/>
<path d="M432.377 187.416H384.589V191.336H432.377V187.416Z" fill="#B8C1C9"/>
<path d="M398.466 111.217H397.33V106.808H395.876V105.863H399.919V106.808H398.466V111.217ZM405.603 108.533C405.603 109.419 405.383 110.1 404.944 110.576C404.504 111.052 403.875 111.291 403.054 111.291C402.234 111.291 401.604 111.052 401.165 110.576C400.725 110.1 400.505 109.417 400.505 108.526C400.505 107.635 400.725 106.955 401.165 106.486C401.606 106.015 402.239 105.779 403.062 105.779C403.884 105.779 404.513 106.016 404.948 106.49C405.385 106.963 405.603 107.644 405.603 108.533ZM401.696 108.533C401.696 109.131 401.809 109.582 402.036 109.884C402.263 110.187 402.603 110.338 403.054 110.338C403.96 110.338 404.413 109.737 404.413 108.533C404.413 107.327 403.962 106.724 403.062 106.724C402.61 106.724 402.269 106.876 402.04 107.182C401.81 107.484 401.696 107.935 401.696 108.533ZM413.103 108.489C413.103 109.37 412.852 110.045 412.349 110.514C411.848 110.983 411.124 111.217 410.177 111.217H408.661V105.863H410.342C411.216 105.863 411.895 106.094 412.378 106.555C412.861 107.017 413.103 107.661 413.103 108.489ZM411.924 108.518C411.924 107.368 411.416 106.793 410.4 106.793H409.796V110.28H410.283C411.377 110.28 411.924 109.693 411.924 108.518ZM419.072 108.533C419.072 109.419 418.853 110.1 418.413 110.576C417.974 111.052 417.344 111.291 416.523 111.291C415.703 111.291 415.073 111.052 414.634 110.576C414.194 110.1 413.975 109.417 413.975 108.526C413.975 107.635 414.194 106.955 414.634 106.486C415.076 106.015 415.708 105.779 416.531 105.779C417.354 105.779 417.982 106.016 418.417 106.49C418.854 106.963 419.072 107.644 419.072 108.533ZM415.165 108.533C415.165 109.131 415.278 109.582 415.505 109.884C415.732 110.187 416.072 110.338 416.523 110.338C417.429 110.338 417.882 109.737 417.882 108.533C417.882 107.327 417.432 106.724 416.531 106.724C416.079 106.724 415.739 106.876 415.509 107.182C415.28 107.484 415.165 107.935 415.165 108.533Z" fill="#42445D"/>
<path d="M443.642 125.222H438.817C438.058 125.222 437.444 125.837 437.444 126.595V131.42C437.444 132.179 438.058 132.793 438.817 132.793H443.642C444.4 132.793 445.015 132.179 445.015 131.42V126.595C445.015 125.837 444.4 125.222 443.642 125.222Z" stroke="#00030E" stroke-width="0.25" stroke-miterlimit="10" stroke-linecap="round"/>
<path d="M443.642 140.307H438.817C438.058 140.307 437.444 140.922 437.444 141.68V146.506C437.444 147.264 438.058 147.878 438.817 147.878H443.642C444.4 147.878 445.015 147.264 445.015 146.506V141.68C445.015 140.922 444.4 140.307 443.642 140.307Z" stroke="#00030E" stroke-width="0.25" stroke-miterlimit="10" stroke-linecap="round"/>
<path d="M443.642 155.406H438.817C438.058 155.406 437.444 156.021 437.444 156.779V161.605C437.444 162.363 438.058 162.977 438.817 162.977H443.642C444.4 162.977 445.015 162.363 445.015 161.605V156.779C445.015 156.021 444.4 155.406 443.642 155.406Z" stroke="#00030E" stroke-width="0.25" stroke-miterlimit="10" stroke-linecap="round"/>
<path d="M443.642 170.491H438.817C438.058 170.491 437.444 171.106 437.444 171.864V176.69C437.444 177.448 438.058 178.062 438.817 178.062H443.642C444.4 178.062 445.015 177.448 445.015 176.69V171.864C445.015 171.106 444.4 170.491 443.642 170.491Z" stroke="#00030E" stroke-width="0.25" stroke-miterlimit="10" stroke-linecap="round"/>
<path d="M443.642 185.591H438.817C438.058 185.591 437.444 186.205 437.444 186.963V191.789C437.444 192.547 438.058 193.162 438.817 193.162H443.642C444.4 193.162 445.015 192.547 445.015 191.789V186.963C445.015 186.205 444.4 185.591 443.642 185.591Z" stroke="#00030E" stroke-width="0.25" stroke-miterlimit="10" stroke-linecap="round"/>
<path d="M438.816 131.378L438.859 126.595L443.642 126.637L443.599 131.378H438.816Z" fill="url(#paint5_linear_18_329)"/>
<path d="M438.816 146.463L438.859 141.68L443.642 141.722L443.599 146.463H438.816Z" fill="url(#paint6_linear_18_329)"/>
<path d="M438.816 161.562L438.859 156.779L443.642 156.822L443.599 161.562H438.816Z" fill="url(#paint7_linear_18_329)"/>
<path d="M457.184 262.389H333.929C323.268 262.389 314.626 271.03 314.626 281.691V371.875C314.626 382.536 323.268 391.177 333.929 391.177H457.184C467.845 391.177 476.486 382.536 476.486 371.875V281.691C476.486 271.03 467.845 262.389 457.184 262.389Z" fill="white"/>
<path d="M476.501 281.691V371.861C476.501 376.98 474.467 381.89 470.847 385.51C467.227 389.13 462.318 391.163 457.199 391.163H333.943C328.822 391.163 323.911 389.13 320.289 385.511C316.667 381.891 314.63 376.982 314.626 371.861" stroke="#00030E" stroke-width="0.25" stroke-miterlimit="10"/>
<path d="M314.626 281.691C314.626 279.155 315.126 276.644 316.097 274.301C317.068 271.958 318.491 269.83 320.285 268.037C322.079 266.244 324.208 264.823 326.552 263.854C328.895 262.885 331.407 262.387 333.943 262.389H457.184C459.72 262.387 462.232 262.885 464.575 263.854C466.919 264.823 469.048 266.244 470.842 268.037C472.636 269.83 474.059 271.958 475.03 274.301C476.001 276.644 476.501 279.155 476.501 281.691H314.626Z" fill="url(#paint8_linear_18_329)"/>
<path d="M355.481 296.068H340.042C338.729 296.068 337.665 297.132 337.665 298.445V307.814C337.665 309.127 338.729 310.191 340.042 310.191H355.481C356.794 310.191 357.858 309.127 357.858 307.814V298.445C357.858 297.132 356.794 296.068 355.481 296.068Z" fill="#B8C1C9"/>
<path d="M379.381 296.068H363.943C362.63 296.068 361.565 297.132 361.565 298.445V307.814C361.565 309.127 362.63 310.191 363.943 310.191H379.381C380.694 310.191 381.759 309.127 381.759 307.814V298.445C381.759 297.132 380.694 296.068 379.381 296.068Z" fill="#B8C1C9"/>
<path d="M403.269 296.068H387.83C386.517 296.068 385.453 297.132 385.453 298.445V307.814C385.453 309.127 386.517 310.191 387.83 310.191H403.269C404.582 310.191 405.646 309.127 405.646 307.814V298.445C405.646 297.132 404.582 296.068 403.269 296.068Z" fill="#B8C1C9"/>
<path d="M427.17 296.068H411.731C410.418 296.068 409.354 297.132 409.354 298.445V307.814C409.354 309.127 410.418 310.191 411.731 310.191H427.17C428.483 310.191 429.547 309.127 429.547 307.814V298.445C429.547 297.132 428.483 296.068 427.17 296.068Z" fill="#B8C1C9"/>
<path d="M451.071 296.068H435.632C434.319 296.068 433.255 297.132 433.255 298.445V307.814C433.255 309.127 434.319 310.191 435.632 310.191H451.071C452.384 310.191 453.448 309.127 453.448 307.814V298.445C453.448 297.132 452.384 296.068 451.071 296.068Z" fill="#B8C1C9"/>
<path d="M355.481 315.837H340.042C338.729 315.837 337.665 316.902 337.665 318.215V327.583C337.665 328.896 338.729 329.96 340.042 329.96H355.481C356.794 329.96 357.858 328.896 357.858 327.583V318.215C357.858 316.902 356.794 315.837 355.481 315.837Z" fill="#B8C1C9"/>
<path d="M379.381 315.837H363.943C362.63 315.837 361.565 316.902 361.565 318.215V327.583C361.565 328.896 362.63 329.96 363.943 329.96H379.381C380.694 329.96 381.759 328.896 381.759 327.583V318.215C381.759 316.902 380.694 315.837 379.381 315.837Z" fill="url(#paint9_linear_18_329)"/>
<path d="M403.269 315.837H387.83C386.517 315.837 385.453 316.902 385.453 318.215V327.583C385.453 328.896 386.517 329.96 387.83 329.96H403.269C404.582 329.96 405.646 328.896 405.646 327.583V318.215C405.646 316.902 404.582 315.837 403.269 315.837Z" fill="#B8C1C9"/>
<path d="M427.17 315.837H411.731C410.418 315.837 409.354 316.902 409.354 318.215V327.583C409.354 328.896 410.418 329.96 411.731 329.96H427.17C428.483 329.96 429.547 328.896 429.547 327.583V318.215C429.547 316.902 428.483 315.837 427.17 315.837Z" fill="#B8C1C9"/>
<path d="M451.071 315.837H435.632C434.319 315.837 433.255 316.902 433.255 318.215V327.583C433.255 328.896 434.319 329.96 435.632 329.96H451.071C452.384 329.96 453.448 328.896 453.448 327.583V318.215C453.448 316.902 452.384 315.837 451.071 315.837Z" fill="#B8C1C9"/>
<path d="M355.481 335.606H340.042C338.729 335.606 337.665 336.671 337.665 337.984V347.352C337.665 348.665 338.729 349.729 340.042 349.729H355.481C356.794 349.729 357.858 348.665 357.858 347.352V337.984C357.858 336.671 356.794 335.606 355.481 335.606Z" fill="#B8C1C9"/>
<path d="M379.381 335.606H363.943C362.63 335.606 361.565 336.671 361.565 337.984V347.352C361.565 348.665 362.63 349.729 363.943 349.729H379.381C380.694 349.729 381.759 348.665 381.759 347.352V337.984C381.759 336.671 380.694 335.606 379.381 335.606Z" fill="#B8C1C9"/>
<path d="M403.269 335.606H387.83C386.517 335.606 385.453 336.671 385.453 337.984V347.352C385.453 348.665 386.517 349.729 387.83 349.729H403.269C404.582 349.729 405.646 348.665 405.646 347.352V337.984C405.646 336.671 404.582 335.606 403.269 335.606Z" fill="#B8C1C9"/>
<path d="M427.17 335.606H411.731C410.418 335.606 409.354 336.671 409.354 337.984V347.352C409.354 348.665 410.418 349.729 411.731 349.729H427.17C428.483 349.729 429.547 348.665 429.547 347.352V337.984C429.547 336.671 428.483 335.606 427.17 335.606Z" fill="url(#paint10_linear_18_329)"/>
<path d="M451.071 335.606H435.632C434.319 335.606 433.255 336.671 433.255 337.984V347.352C433.255 348.665 434.319 349.729 435.632 349.729H451.071C452.384 349.729 453.448 348.665 453.448 347.352V337.984C453.448 336.671 452.384 335.606 451.071 335.606Z" fill="#B8C1C9"/>
<path d="M355.481 355.39H340.042C338.729 355.39 337.665 356.454 337.665 357.767V367.135C337.665 368.448 338.729 369.512 340.042 369.512H355.481C356.794 369.512 357.858 368.448 357.858 367.135V357.767C357.858 356.454 356.794 355.39 355.481 355.39Z" fill="#B8C1C9"/>
<path d="M379.381 355.39H363.943C362.63 355.39 361.565 356.454 361.565 357.767V367.135C361.565 368.448 362.63 369.512 363.943 369.512H379.381C380.694 369.512 381.759 368.448 381.759 367.135V357.767C381.759 356.454 380.694 355.39 379.381 355.39Z" fill="#B8C1C9"/>
<path d="M403.269 355.39H387.83C386.517 355.39 385.453 356.454 385.453 357.767V367.135C385.453 368.448 386.517 369.512 387.83 369.512H403.269C404.582 369.512 405.646 368.448 405.646 367.135V357.767C405.646 356.454 404.582 355.39 403.269 355.39Z" fill="#B8C1C9"/>
<path d="M427.17 355.39H411.731C410.418 355.39 409.354 356.454 409.354 357.767V367.135C409.354 368.448 410.418 369.512 411.731 369.512H427.17C428.483 369.512 429.547 368.448 429.547 367.135V357.767C429.547 356.454 428.483 355.39 427.17 355.39Z" fill="#B8C1C9"/>
<path d="M451.071 355.39H435.632C434.319 355.39 433.255 356.454 433.255 357.767V367.135C433.255 368.448 434.319 369.512 435.632 369.512H451.071C452.384 369.512 453.448 368.448 453.448 367.135V357.767C453.448 356.454 452.384 355.39 451.071 355.39Z" fill="#B8C1C9"/>
<path d="M436.878 274.827C435.604 274.824 434.384 274.315 433.485 273.413C432.585 272.511 432.08 271.29 432.08 270.016V254.747C432.08 253.475 432.586 252.255 433.485 251.355C434.385 250.455 435.605 249.95 436.878 249.95C438.15 249.95 439.37 250.455 440.27 251.355C441.169 252.255 441.675 253.475 441.675 254.747V270.016C441.675 271.29 441.17 272.511 440.271 273.413C439.371 274.315 438.151 274.824 436.878 274.827Z" fill="#B8C1C9"/>
<path d="M441.675 254.747V270.016C441.675 271.29 441.17 272.511 440.271 273.413C439.371 274.315 438.151 274.824 436.878 274.827C435.604 274.824 434.384 274.315 433.485 273.413C432.585 272.511 432.08 271.29 432.08 270.016" stroke="#00030E" stroke-width="0.25" stroke-miterlimit="10" stroke-linecap="round"/>
<path d="M399.787 309.54L391.297 301.049C391.007 300.764 390.777 300.423 390.62 300.048C390.463 299.673 390.382 299.27 390.382 298.863C390.382 298.456 390.463 298.053 390.62 297.678C390.777 297.303 391.007 296.962 391.297 296.677L399.787 305.167C400.362 305.75 400.684 306.535 400.684 307.354C400.684 308.172 400.362 308.957 399.787 309.54Z" fill="#264196"/>
<path d="M389.146 307.347L397.637 298.856C397.924 298.566 398.265 298.336 398.642 298.178C399.018 298.021 399.422 297.94 399.83 297.94C400.238 297.94 400.642 298.021 401.019 298.178C401.395 298.336 401.737 298.566 402.024 298.856L393.533 307.347C393.245 307.635 392.903 307.864 392.527 308.02C392.151 308.176 391.747 308.256 391.34 308.256C390.932 308.256 390.529 308.176 390.152 308.02C389.776 307.864 389.434 307.635 389.146 307.347Z" fill="#264196"/>
<path d="M351.971 349.078L343.481 340.587C342.903 340.006 342.578 339.22 342.578 338.401C342.578 337.581 342.903 336.795 343.481 336.215L351.971 344.705C352.55 345.286 352.874 346.072 352.874 346.892C352.874 347.711 352.55 348.497 351.971 349.078Z" fill="#264196"/>
<path d="M341.358 346.899L349.849 338.408C350.432 337.829 351.22 337.504 352.042 337.504C352.864 337.504 353.652 337.829 354.235 338.408L345.745 346.899C345.457 347.187 345.115 347.416 344.739 347.572C344.362 347.728 343.959 347.808 343.551 347.808C343.144 347.808 342.74 347.728 342.364 347.572C341.988 347.416 341.646 347.187 341.358 346.899Z" fill="#264196"/>
<path d="M447.576 368.861L439.086 360.371C438.796 360.084 438.565 359.742 438.408 359.366C438.251 358.989 438.17 358.585 438.17 358.177C438.17 357.769 438.251 357.365 438.408 356.989C438.565 356.612 438.796 356.271 439.086 355.984L447.576 364.474C448.155 365.058 448.48 365.846 448.48 366.668C448.48 367.49 448.155 368.278 447.576 368.861Z" fill="#264196"/>
<path d="M436.878 366.668L445.369 358.177C445.655 357.887 445.997 357.657 446.374 357.5C446.75 357.342 447.154 357.261 447.562 357.261C447.97 357.261 448.374 357.342 448.75 357.5C449.127 357.657 449.469 357.887 449.755 358.177L441.265 366.668C440.979 366.96 440.638 367.191 440.261 367.35C439.884 367.508 439.48 367.589 439.071 367.589C438.663 367.589 438.258 367.508 437.882 367.35C437.505 367.191 437.164 366.96 436.878 366.668Z" fill="#264196"/>
<path d="M414.574 221.037C422.746 171.73 389.399 125.135 340.092 116.963C290.785 108.791 244.189 142.138 236.018 191.445C227.846 240.752 261.193 287.348 310.5 295.52C359.807 303.691 406.403 270.344 414.574 221.037Z" fill="url(#paint11_linear_18_329)"/>
<path d="M375.816 256.75C403.73 228.837 403.73 183.58 375.816 155.666C347.903 127.753 302.646 127.753 274.733 155.666C246.819 183.58 246.819 228.837 274.733 256.75C302.646 284.664 347.903 284.664 375.816 256.75Z" fill="white"/>
<path d="M327.858 139.515H322.692C321.934 139.515 321.32 140.129 321.32 140.888V149.463C321.32 150.221 321.934 150.836 322.692 150.836H327.858C328.616 150.836 329.23 150.221 329.23 149.463V140.888C329.23 140.129 328.616 139.515 327.858 139.515Z" fill="#B8C1C9"/>
<path d="M294.158 147.163L289.685 149.746C289.028 150.125 288.803 150.964 289.182 151.621L293.47 159.048C293.849 159.704 294.689 159.929 295.345 159.55L299.818 156.967C300.475 156.588 300.7 155.749 300.321 155.092L296.033 147.666C295.654 147.009 294.814 146.784 294.158 147.163Z" fill="#B8C1C9"/>
<path d="M268.798 170.624L266.215 175.097C265.836 175.754 266.061 176.593 266.718 176.972L274.144 181.26C274.801 181.639 275.64 181.414 276.019 180.758L278.602 176.285C278.981 175.628 278.756 174.789 278.099 174.41L270.673 170.122C270.016 169.743 269.177 169.968 268.798 170.624Z" fill="#B8C1C9"/>
<path d="M258.574 203.648V208.813C258.574 209.571 259.189 210.185 259.947 210.185H268.522C269.28 210.185 269.895 209.571 269.895 208.813V203.648C269.895 202.89 269.28 202.275 268.522 202.275H259.947C259.189 202.275 258.574 202.89 258.574 203.648Z" fill="#B8C1C9"/>
<path d="M266.224 237.339L268.807 241.813C269.186 242.469 270.025 242.694 270.682 242.315L278.108 238.027C278.765 237.648 278.99 236.809 278.611 236.152L276.028 231.679C275.649 231.022 274.81 230.798 274.153 231.177L266.726 235.464C266.07 235.843 265.845 236.683 266.224 237.339Z" fill="#B8C1C9"/>
<path d="M289.706 262.692L294.179 265.275C294.835 265.654 295.675 265.429 296.054 264.772L300.342 257.346C300.721 256.689 300.496 255.849 299.839 255.47L295.366 252.888C294.71 252.509 293.87 252.734 293.491 253.39L289.203 260.817C288.824 261.473 289.049 262.313 289.706 262.692Z" fill="#B8C1C9"/>
<path d="M322.707 272.917H327.872C328.63 272.917 329.244 272.302 329.244 271.544V262.969C329.244 262.211 328.63 261.596 327.872 261.596H322.707C321.948 261.596 321.334 262.211 321.334 262.969V271.544C321.334 272.302 321.948 272.917 322.707 272.917Z" fill="#B8C1C9"/>
<path d="M356.399 265.282L360.872 262.699C361.529 262.32 361.754 261.481 361.374 260.824L357.087 253.397C356.708 252.741 355.868 252.516 355.212 252.895L350.738 255.478C350.082 255.857 349.857 256.696 350.236 257.353L354.524 264.779C354.903 265.436 355.742 265.661 356.399 265.282Z" fill="#B8C1C9"/>
<path d="M381.751 241.8L384.333 237.327C384.712 236.67 384.487 235.831 383.831 235.451L376.404 231.164C375.748 230.785 374.908 231.01 374.529 231.666L371.946 236.139C371.567 236.796 371.792 237.635 372.449 238.014L379.876 242.302C380.532 242.681 381.372 242.456 381.751 241.8Z" fill="#B8C1C9"/>
<path d="M391.99 208.799V203.633C391.99 202.875 391.376 202.261 390.618 202.261H382.042C381.284 202.261 380.669 202.875 380.669 203.633V208.799C380.669 209.557 381.284 210.171 382.042 210.171H390.618C391.376 210.171 391.99 209.557 391.99 208.799Z" fill="#B8C1C9"/>
<path d="M384.328 175.113L381.746 170.64C381.367 169.983 380.527 169.758 379.871 170.137L372.444 174.425C371.788 174.804 371.563 175.644 371.942 176.3L374.524 180.773C374.903 181.43 375.743 181.655 376.399 181.276L383.826 176.988C384.483 176.609 384.708 175.769 384.328 175.113Z" fill="#B8C1C9"/>
<path d="M360.852 149.753L356.379 147.17C355.723 146.791 354.883 147.016 354.504 147.673L350.216 155.099C349.837 155.756 350.062 156.595 350.719 156.974L355.192 159.557C355.848 159.936 356.688 159.711 357.067 159.055L361.355 151.628C361.734 150.971 361.509 150.132 360.852 149.753Z" fill="#B8C1C9"/>
<path d="M327.522 134.732C346.127 135.255 363.794 143.014 376.769 156.359C389.743 169.704 397.002 187.582 397.002 206.195C397.002 224.807 389.743 242.686 376.769 256.03C363.794 269.375 346.127 277.134 327.522 277.658" stroke="#00030E" stroke-width="0.25" stroke-miterlimit="10"/>
<path d="M326.402 115.727C350.206 116.025 372.933 125.689 389.66 142.627C406.387 159.565 415.767 182.411 415.767 206.216C415.767 230.021 406.387 252.867 389.66 269.805C372.933 286.743 350.206 296.407 326.402 296.705" stroke="#00030E" stroke-width="0.25" stroke-miterlimit="10"/>
<path d="M326.159 149.208C328.537 160.43 334.296 196.926 326.258 215.52C326.174 215.711 326.036 215.873 325.862 215.986C325.687 216.1 325.483 216.161 325.275 216.161C325.067 216.161 324.863 216.1 324.688 215.986C324.514 215.873 324.376 215.711 324.291 215.52C316.268 196.926 322.027 160.43 324.391 149.208C324.435 149.007 324.547 148.827 324.708 148.697C324.868 148.568 325.069 148.498 325.275 148.498C325.481 148.498 325.681 148.568 325.842 148.697C326.003 148.827 326.115 149.007 326.159 149.208Z" fill="#264196"/>
<path d="M281.216 205.53C289.877 203.704 320.74 199.246 335.103 205.445C335.252 205.51 335.378 205.617 335.466 205.753C335.555 205.888 335.602 206.047 335.602 206.209C335.602 206.371 335.555 206.529 335.466 206.665C335.378 206.801 335.252 206.908 335.103 206.973C320.74 213.171 289.82 208.728 281.216 206.902C281.051 206.878 280.9 206.796 280.791 206.67C280.682 206.544 280.622 206.383 280.622 206.216C280.622 206.049 280.682 205.888 280.791 205.762C280.9 205.636 281.051 205.553 281.216 205.53Z" fill="#264196"/>
<path d="M196.253 204.865L202.069 188.506H219.404L215.484 202.416L196.253 204.865Z" fill="#F4B7BC" stroke="#F4B7BC" stroke-width="0.25" stroke-linecap="round" stroke-linejoin="round"/>
<path d="M216.064 195.496L215.484 202.416L217.352 195.794L216.064 195.496Z" fill="#00030E" stroke="#00030E" stroke-width="0.25" stroke-miterlimit="10"/>
<path d="M221.017 182.268C222.705 175.118 218.276 167.953 211.126 166.266C203.976 164.578 196.812 169.006 195.124 176.156C193.437 183.307 197.865 190.471 205.015 192.158C212.165 193.846 219.329 189.418 221.017 182.268Z" fill="#F4B7BC" stroke="#F4B7BC" stroke-width="0.25" stroke-linecap="round" stroke-linejoin="round"/>
<path d="M220.027 173.35C223.098 179.605 223.607 189.652 220.423 193.996C217.239 198.341 213.05 193.671 212.131 191.322C212.131 191.322 209.3 188.704 209.711 186.638C210.249 184.218 213.362 184.572 213.815 187.218" fill="#F4B7BC"/>
<path d="M220.027 173.35C223.098 179.605 223.607 189.652 220.423 193.996C217.239 198.341 213.05 193.671 212.131 191.322C212.131 191.322 209.3 188.704 209.711 186.638C210.249 184.218 213.362 184.572 213.815 187.218" stroke="#F4B7BC" stroke-width="0.25" stroke-linecap="round" stroke-linejoin="round"/>
<path d="M211.112 190.218C212.413 191.464 213.942 190.374 213.701 188.718" stroke="#00030E" stroke-width="0.25" stroke-linecap="round" stroke-linejoin="round"/>
<path d="M212.413 185.223C213.829 185.959 214.38 188.053 216.121 187.742C217.437 187.487 217.791 185.93 217.536 184.911C217.281 183.893 216.97 182.265 217.536 181.529C218.102 180.793 220.126 179.378 218.852 177.567C217.579 175.756 220.267 173.987 220.621 171.822C221.315 167.888 216.376 161.237 207.107 163.034C195.687 165.256 196.211 173.138 196.211 173.138C195.364 173.611 194.623 174.252 194.032 175.021C193.441 175.789 193.012 176.67 192.772 177.609C191.725 180.723 192.871 184.218 196.706 187.94C200.541 191.661 199.536 192.737 198.843 193.671C198.149 194.605 198.588 195.694 201.461 195.864C204.333 196.034 210.73 195.864 211.041 190.289C210.402 189.501 209.922 188.598 209.626 187.628C209.479 187.252 209.452 186.84 209.55 186.448C209.647 186.056 209.863 185.704 210.169 185.44C210.475 185.176 210.855 185.014 211.257 184.975C211.659 184.936 212.063 185.022 212.413 185.223Z" fill="url(#paint12_linear_18_329)" stroke="#00030E" stroke-width="0.25" stroke-linecap="round" stroke-linejoin="round"/>
<path d="M221.314 176.676C223.168 182.718 223.083 190.36 220.422 193.997C220.193 194.416 219.878 194.783 219.499 195.074C219.12 195.366 218.685 195.576 218.22 195.69C217.756 195.804 217.273 195.821 216.802 195.739C216.331 195.657 215.882 195.478 215.484 195.214" stroke="#00030E" stroke-width="0.25" stroke-linecap="round" stroke-linejoin="round"/>
<path d="M196.097 200.959C196.309 200.803 199.536 199.317 207.135 199.317C210.425 199.338 213.711 199.574 216.97 200.025H217.069L218.201 202.572L193.805 205.643L196.097 200.959Z" fill="#437663"/>
<path d="M236.088 193.855C234.924 192.955 233.498 192.458 232.027 192.44H230.031L225.786 191.237C225.476 191.147 225.149 191.137 224.834 191.209C224.52 191.281 224.229 191.432 223.989 191.647C222.8 192.694 220.592 194.676 219.517 195.68C219.248 195.921 219.588 196.459 219.828 196.529C220.312 196.656 220.818 196.671 221.309 196.573C221.799 196.474 222.261 196.266 222.659 195.963L222.899 195.779L224.682 197.874C225.819 199.196 226.693 200.724 227.258 202.374C229.578 209.209 233.994 208.317 236.484 210.129L242.017 198.412C239.512 196.445 237.446 194.874 236.088 193.855ZM225.503 194.93L227.173 195.496L227.427 196.685L225.503 194.93Z" fill="#F4B7BC" stroke="#F4B7BC" stroke-width="0.25" stroke-linecap="round" stroke-linejoin="round"/>
<path d="M236.484 203.718C235.876 204.497 232.451 203.888 228.673 204.864V205.36C231.093 209.025 234.447 208.685 236.499 210.185L242.032 198.468C239.89 199.881 238.013 201.658 236.484 203.718Z" fill="#00030E" stroke="#00030E" stroke-width="0.25" stroke-linecap="round" stroke-linejoin="round"/>
<path d="M190.225 290.903C175.621 283.941 162.064 261.186 161.073 254.11C160.154 247.572 173.512 210.723 190.465 206.237H190.706L187.38 244.445C180.602 251.365 179.654 255.539 179.654 255.568C179.173 261.511 194.894 277.827 195.05 277.983V278.068L190.338 291.158L190.225 290.903Z" fill="url(#paint13_linear_18_329)"/>
<path d="M190.649 274.488C190.765 279.732 190.175 284.968 188.894 290.054C189.375 290.309 189.856 290.563 190.309 290.79L194.922 277.983C194.922 277.983 192.941 275.945 190.408 273.03C190.516 273.511 190.596 273.998 190.649 274.488Z" fill="#00030E" stroke="#00030E" stroke-width="0.25" stroke-linecap="round" stroke-linejoin="round"/>
<path d="M187.211 244.247L189.843 220.94C180.319 222.751 177.899 230.096 179.767 236.181C181.819 242.832 182.173 243.553 183.744 248.096C184.692 246.936 185.824 245.648 187.211 244.247Z" fill="#00030E" stroke="#00030E" stroke-width="0.25" stroke-linecap="round" stroke-linejoin="round"/>
<path d="M190.649 311.974C187.493 304.431 188.597 298.686 189.871 292.021C191.371 284.153 193.069 275.252 188.541 260.662C183.772 245.322 180.8 232.714 179.13 224.832C178.325 220.869 179.044 216.748 181.142 213.292C183.24 209.835 186.564 207.296 190.451 206.181C198.872 203.686 207.594 202.353 216.376 202.218C221.371 202.177 226.351 202.781 231.192 204.015C234.045 204.773 236.631 206.308 238.662 208.449C240.694 210.591 242.09 213.254 242.697 216.143C243.008 217.643 243.404 219.355 243.857 221.294C247.452 236.86 254.131 265.856 251.598 311.861V312.031H190.748L190.649 311.974Z" fill="url(#paint14_linear_18_329)"/>
<path d="M190.833 311.903C184.012 295.629 197.145 287.719 188.725 260.62C184.097 245.747 181.126 233.393 179.328 224.803" stroke="#00030E" stroke-width="0.25" stroke-linecap="round" stroke-linejoin="round"/>
<path d="M236.965 239.011C236.965 239.011 246.631 275.676 239.456 311.903" stroke="#00030E" stroke-width="0.25" stroke-miterlimit="10" stroke-linecap="round"/>
<path d="M229.097 235.219C236.173 242.69 249.956 257.153 249.956 257.153C249.217 249.146 247.888 241.204 245.979 233.393L229.097 235.219Z" fill="#00030E" stroke="#00030E" stroke-width="0.25" stroke-miterlimit="10" stroke-linecap="round"/>
<path d="M207.39 311.917C204.941 305.671 204.667 298.782 206.611 292.361C212.413 274.035 183.375 210.129 198.531 204.369" stroke="#00030E" stroke-width="0.25" stroke-miterlimit="10" stroke-linecap="round"/>
<path d="M236.328 210.27V210.199C236.24 207.91 236.709 205.633 237.695 203.565C238.681 201.497 240.155 199.7 241.989 198.327L242.102 198.256L242.201 198.327C247.278 202.217 252.038 206.504 256.437 211.147C262.72 217.869 269.753 227.506 267.588 235.204L267.517 235.459L236.328 210.27Z" fill="url(#paint15_linear_18_329)"/>
<path d="M236.498 210.185L246.404 218.265L256.126 217.883C250.448 212.568 244.353 207.718 237.899 203.378C236.854 205.489 236.371 207.833 236.498 210.185Z" fill="#00030E" stroke="#00030E" stroke-width="0.25" stroke-miterlimit="10"/>
<path d="M253.013 241.997C244.522 241.997 234.701 239.266 229.126 235.36C222.05 230.45 219.574 217.445 222.05 209.52C223.267 205.643 225.574 203.506 228.531 203.506H229.225C239.272 204.567 258.404 217.077 265.14 226.968C267.334 230.209 268.14 232.983 267.518 235.218C266.329 239.464 261.036 241.954 252.999 241.954L253.013 241.997Z" fill="url(#paint16_linear_18_329)"/>
<path d="M221.781 221.733C222.772 227.195 225.248 232.459 229.182 235.219C239.654 242.549 264.56 245.379 267.39 235.219" stroke="#00030E" stroke-width="0.25" stroke-miterlimit="10" stroke-linecap="round"/>
<path d="M260.427 221.733C251.725 213.058 237.206 204.567 229.224 203.718" stroke="#00030E" stroke-width="0.25" stroke-miterlimit="10" stroke-linecap="round"/>
<path d="M267.362 235.219C271.494 220.346 242.031 198.426 242.031 198.426C239.555 200.292 237.772 202.931 236.965 205.926" stroke="#00030E" stroke-width="0.25" stroke-miterlimit="10" stroke-linecap="round"/>
<path d="M190.507 206.35C198.998 203.888 210.545 201.68 221.852 202.614" stroke="#00030E" stroke-width="0.25" stroke-linecap="round" stroke-linejoin="round"/>
<path d="M192.135 426.187C190.448 426.274 188.772 425.871 187.309 425.027V424.942C183.375 389.324 187.168 375.003 189.432 366.456C189.927 364.573 190.366 362.946 190.621 361.432C192.206 352.389 193.012 316.799 193.012 316.432C192.146 315.02 191.389 313.544 190.748 312.016L190.649 311.776H218.201V325.021L202.762 424.079H202.663C199.322 425.36 195.795 426.091 192.22 426.244L192.135 426.187Z" fill="url(#paint17_linear_18_329)"/>
<path d="M211.635 315.413L210.729 371.196L217.932 324.993V315.413H211.635Z" fill="#00030E" stroke="#00030E" stroke-width="0.25" stroke-miterlimit="10" stroke-linecap="round"/>
<path d="M223.762 428.211C220.253 428.211 217.394 427.051 215.894 425.041C216.022 409.178 217.196 380.508 223.366 365.536C228.163 353.875 216.588 321.427 215.951 319.658C212.372 317.995 209.346 315.337 207.234 312.002L207.064 311.734H247.253V311.917C244.902 349.912 240.176 387.722 233.102 425.126C230.466 427.215 227.182 428.316 223.819 428.239L223.762 428.211Z" fill="url(#paint18_linear_18_329)"/>
<path d="M246.998 311.903H190.833C191.116 312.583 191.427 313.318 191.781 313.955H246.871L246.998 311.903Z" fill="#00030E" stroke="#00030E" stroke-width="0.25" stroke-miterlimit="10"/>
<path d="M244.423 432.244C243.767 431.265 242.883 430.459 241.848 429.895L232.933 425.069C228.687 428.664 219.418 429.414 216.093 424.942C216.093 427.772 216.093 430.164 216.093 432.017C216.1 432.968 216.484 433.877 217.161 434.546C217.837 435.214 218.75 435.587 219.701 435.584H244.565C244.763 435.584 244.957 435.53 245.126 435.429C245.296 435.327 245.435 435.181 245.528 435.007C245.621 434.832 245.665 434.636 245.655 434.438C245.645 434.241 245.581 434.05 245.47 433.885L244.423 432.244Z" fill="url(#paint19_linear_18_329)" stroke="#00030E" stroke-width="0.25" stroke-linecap="round" stroke-linejoin="round"/>
<path d="M187.395 424.885C187.725 427.772 188.097 430.805 188.512 433.984C188.57 434.41 188.78 434.8 189.102 435.083C189.424 435.366 189.838 435.524 190.267 435.527H205.027C205.299 435.529 205.568 435.467 205.813 435.346C206.057 435.226 206.27 435.05 206.435 434.834C206.6 434.617 206.712 434.364 206.762 434.097C206.812 433.829 206.8 433.553 206.725 433.291C205.558 430.039 204.139 426.883 202.48 423.852C197.725 425.536 190.975 427.178 187.395 424.885Z" fill="url(#paint20_linear_18_329)" stroke="#00030E" stroke-width="0.25" stroke-linecap="round" stroke-linejoin="round"/>
<path d="M209.795 315.398C211.534 317.249 213.688 318.66 216.078 319.516C216.078 319.516 228.531 353.479 223.536 365.592" stroke="#00030E" stroke-width="0.25" stroke-miterlimit="10" stroke-linecap="round"/>
<path d="M239.456 311.903C238.607 349.899 235.211 375.06 226.579 427.786" stroke="#00030E" stroke-width="0.25" stroke-miterlimit="10"/>
<path d="M238.947 327.201L242.102 311.917" stroke="#00030E" stroke-width="0.25" stroke-miterlimit="10"/>
<path d="M214.338 330.936L201.149 424.305" stroke="#00030E" stroke-width="0.25" stroke-miterlimit="10"/>
<path d="M322.736 77.887L324.151 81.8352C324.802 83.5943 325.825 85.1919 327.152 86.5183C328.478 87.8446 330.075 88.8683 331.835 89.5192L335.783 90.9343L331.835 92.3494C330.075 93.0035 328.477 94.0299 327.151 95.3586C325.825 96.6873 324.801 98.2868 324.151 100.048L322.736 103.982L321.32 100.048C320.67 98.2868 319.646 96.6873 318.32 95.3586C316.994 94.0299 315.396 93.0035 313.636 92.3494L309.688 90.9343L313.636 89.5192C315.396 88.8683 316.993 87.8446 318.319 86.5183C319.646 85.1919 320.67 83.5943 321.32 81.8352L322.736 77.887Z" fill="url(#paint21_linear_18_329)"/>
<path d="M471.519 139.487L472.934 143.421C473.585 145.181 474.609 146.781 475.935 148.11C477.261 149.438 478.859 150.465 480.618 151.119L484.567 152.534L480.618 153.949C478.858 154.597 477.259 155.62 475.932 156.947C474.606 158.274 473.583 159.872 472.934 161.633L471.519 165.567L470.104 161.633C469.453 159.872 468.427 158.273 467.098 156.947C465.769 155.62 464.168 154.597 462.406 153.949L458.472 152.534L462.406 151.119C464.168 150.466 465.768 149.44 467.096 148.111C468.425 146.782 469.451 145.182 470.104 143.421L471.519 139.487Z" fill="url(#paint22_linear_18_329)"/>
<path d="M163.139 286.728L164.554 290.677C165.205 292.436 166.229 294.033 167.555 295.36C168.881 296.686 170.479 297.71 172.238 298.361L176.186 299.776L172.238 301.191C170.479 301.845 168.881 302.871 167.555 304.2C166.229 305.529 165.205 307.128 164.554 308.889L163.139 312.823L161.724 308.889C161.076 307.127 160.053 305.526 158.726 304.197C157.4 302.868 155.801 301.842 154.04 301.191L150.092 299.776L154.04 298.361C155.801 297.712 157.399 296.689 158.726 295.363C160.053 294.036 161.076 292.437 161.724 290.677L163.139 286.728Z" fill="url(#paint23_linear_18_329)"/>
<path d="M436.878 203.775L437.826 206.322C438.246 207.466 438.911 208.504 439.774 209.364C440.637 210.224 441.677 210.886 442.821 211.303L445.368 212.251L442.821 213.2C441.679 213.625 440.641 214.291 439.779 215.153C438.917 216.015 438.251 217.052 437.826 218.195L436.878 220.756L435.93 218.195C435.504 217.052 434.838 216.015 433.976 215.153C433.114 214.291 432.077 213.625 430.934 213.2L428.373 212.251L430.934 211.303C432.081 210.885 433.122 210.221 433.984 209.358C434.847 208.495 435.511 207.454 435.93 206.308L436.878 203.775Z" fill="url(#paint24_linear_18_329)"/>
<path d="M424.679 226.643L425.09 227.761C425.276 228.257 425.567 228.707 425.944 229.081C426.32 229.454 426.772 229.743 427.269 229.926L428.373 230.351L427.269 230.761C426.772 230.944 426.32 231.233 425.944 231.606C425.567 231.98 425.276 232.43 425.09 232.926L424.679 234.044L424.269 232.926C424.087 232.43 423.799 231.979 423.425 231.605C423.051 231.231 422.6 230.943 422.104 230.761L420.986 230.351L422.104 229.926C422.6 229.744 423.051 229.456 423.425 229.083C423.799 228.709 424.087 228.258 424.269 227.761L424.679 226.643Z" fill="url(#paint25_linear_18_329)"/>
<path d="M264.235 290.79L264.645 291.894C264.827 292.394 265.117 292.848 265.493 293.224C265.87 293.601 266.324 293.89 266.824 294.073L267.928 294.483L266.824 294.894C266.324 295.076 265.87 295.365 265.493 295.742C265.117 296.118 264.827 296.573 264.645 297.073L264.235 298.177L263.824 297.073C263.645 296.573 263.358 296.119 262.984 295.742C262.61 295.366 262.158 295.076 261.659 294.894L260.541 294.483L261.659 294.073C262.158 293.89 262.61 293.601 262.984 293.224C263.358 292.847 263.645 292.393 263.824 291.894L264.235 290.79Z" fill="url(#paint26_linear_18_329)"/>
<path d="M458.43 241.473L458.84 242.591C459.022 243.088 459.31 243.539 459.684 243.913C460.058 244.287 460.509 244.575 461.005 244.756L462.123 245.181L461.005 245.591C460.509 245.773 460.058 246.061 459.684 246.435C459.31 246.809 459.022 247.26 458.84 247.756L458.43 248.874L458.019 247.756C457.834 247.259 457.544 246.808 457.168 246.434C456.791 246.061 456.338 245.773 455.84 245.591L454.736 245.181L455.84 244.756C456.338 244.575 456.791 244.287 457.168 243.913C457.544 243.539 457.834 243.088 458.019 242.591L458.43 241.473Z" fill="url(#paint27_linear_18_329)"/>
<path d="M150.05 271.757L150.46 272.875C150.647 273.371 150.938 273.821 151.314 274.194C151.69 274.568 152.142 274.856 152.64 275.04L153.743 275.464L152.64 275.875C152.142 276.058 151.69 276.346 151.314 276.72C150.938 277.093 150.647 277.544 150.46 278.04L150.05 279.158L149.64 278.04C149.458 277.543 149.17 277.092 148.796 276.718C148.422 276.344 147.971 276.056 147.474 275.875L146.356 275.464L147.474 275.04C147.971 274.858 148.422 274.57 148.796 274.196C149.17 273.822 149.458 273.371 149.64 272.875L150.05 271.757Z" fill="url(#paint28_linear_18_329)"/>
<path d="M355.806 101.618L356.216 102.722C356.396 103.222 356.682 103.676 357.056 104.053C357.431 104.429 357.883 104.719 358.381 104.901L359.499 105.312L358.381 105.722C357.883 105.905 357.431 106.194 357.056 106.571C356.682 106.948 356.396 107.402 356.216 107.901L355.806 109.005L355.396 107.901C355.212 107.402 354.921 106.949 354.545 106.573C354.169 106.196 353.716 105.906 353.216 105.722L352.098 105.312L353.216 104.901C353.716 104.717 354.169 104.427 354.545 104.051C354.921 103.675 355.212 103.221 355.396 102.722L355.806 101.618Z" fill="url(#paint29_linear_18_329)"/>
<path d="M344.231 376.998C345.597 383.842 345.635 390.885 344.344 397.744C343.748 400.864 342.915 403.934 341.853 406.928C341.344 408.343 340.82 409.758 340.254 411.046C339.688 412.333 339.065 413.607 338.457 414.796C337.36 416.968 336.131 419.071 334.778 421.093C333.748 422.693 332.628 424.233 331.424 425.706C329.414 428.183 328.098 429.499 328.098 429.499C328.098 429.499 326.91 427.999 325.141 425.437C324.249 424.15 323.202 422.607 322.042 420.909C320.881 419.211 319.664 417.244 318.334 415.178C317.683 414.145 317.018 413.069 316.381 411.966C315.744 410.862 314.966 409.73 314.372 408.569C313.098 406.248 311.711 403.843 310.551 401.338C305.302 391.215 302.887 379.862 303.56 368.479C303.56 365.72 303.886 362.946 304.112 360.314C304.24 358.984 304.395 357.668 304.565 356.394C304.735 355.121 304.862 353.875 305.032 352.673C305.414 350.239 305.74 347.974 306.093 345.922C306.447 343.871 306.801 342.059 307.07 340.517C307.65 337.46 308.131 335.606 308.131 335.606C308.131 335.606 309.872 336.271 312.716 337.729C314.413 338.581 316.062 339.526 317.655 340.559C319.713 341.857 321.693 343.274 323.584 344.805C324.617 345.654 325.678 346.545 326.754 347.507C327.829 348.47 328.834 349.517 329.881 350.621C332.075 352.918 334.086 355.383 335.896 357.993C339.866 363.736 342.696 370.188 344.231 376.998Z" fill="url(#paint30_linear_18_329)"/>
<path d="M337.82 361.05L337.254 360.102C336.476 361.517 335.499 363.314 334.424 365.451C333.348 367.588 332.23 370.064 331.197 372.725C328.811 378.454 327.29 384.506 326.683 390.682C325.752 384.623 324.491 378.618 322.905 372.696C322.591 371.502 322.364 370.287 322.226 369.059C322.047 367.879 321.952 366.687 321.942 365.493C321.917 363.167 322.088 360.843 322.452 358.545C322.812 356.381 323.284 354.236 323.867 352.121C324.433 350.111 325.084 348.229 325.664 346.602L324.9 345.951C323.032 351.158 320.796 358.574 321.065 366.158C317.897 355.706 313.771 345.569 308.74 335.875L308.103 335.606L307.933 336.286C312.938 345.936 317.044 356.025 320.202 366.427C316.495 360.83 311.095 356.566 304.791 354.257L304.678 355.149C306.378 355.815 308.021 356.619 309.589 357.555C311.405 358.601 313.108 359.834 314.669 361.234C316.367 362.742 317.856 364.469 319.098 366.371C319.745 367.36 320.326 368.391 320.839 369.456C321.33 370.578 321.732 371.737 322.042 372.923C323.617 378.817 324.868 384.793 325.792 390.824C323.422 385.28 319.635 380.458 314.81 376.843C312.834 375.349 310.743 374.015 308.556 372.852C306.908 371.994 305.212 371.233 303.475 370.574V371.479C308.411 373.382 312.95 376.184 316.862 379.744C322.292 384.526 325.81 391.11 326.768 398.281C327.051 400.715 327.249 403.164 327.461 405.598C327.674 408.032 327.801 410.494 327.829 412.956C325.733 405.933 321.535 399.72 315.801 395.154C312.711 392.599 309.282 390.485 305.612 388.871L305.938 389.918C310.607 392.134 314.854 395.146 318.49 398.819C323.485 403.899 328.013 411.555 327.886 420.484C327.886 423.315 327.716 426.145 327.603 428.975L328.027 429.527L328.509 429.032C328.636 426.201 328.806 423.371 328.792 420.541C328.919 411.64 332.216 403.56 335.867 396.838C337.664 393.484 339.603 390.484 341.216 388.064C342.829 385.645 344.273 383.819 345.023 382.843L344.867 381.428C342.181 384.818 339.723 388.382 337.509 392.097C333.436 398.492 330.474 405.531 328.749 412.914C328.749 410.451 328.494 407.989 328.381 405.527C328.268 403.064 327.971 400.616 327.688 398.168C327.085 390.823 328.13 383.436 330.744 376.545C332.672 371.194 335.039 366.012 337.82 361.05Z" fill="white"/>
<path d="M394.339 377.451C395.118 378.696 397.424 379.97 400 382.149C403.068 384.642 405.405 387.918 406.764 391.63C408.251 396.333 408.552 401.33 407.641 406.178C406.948 410.324 405.788 413.437 405.83 415.362C405.83 413.423 404.415 410.366 402.717 406.871C400.66 402.992 398.868 398.978 397.354 394.857C396.311 391.487 395.721 387.995 395.599 384.47C395.33 381.314 395.132 378.71 394.339 377.451Z" fill="#4EB15F"/>
<path d="M501.789 360.71C500.26 362.323 498.718 365.677 497.034 369.908C495.142 374.838 492.983 379.662 490.567 384.357C488.869 387.583 487.142 390.626 485.487 393.527C483.831 396.428 482.274 399.187 480.958 401.748C478.227 406.871 476.302 411.3 475.906 414.187C476.302 411.357 475.751 406.531 476.161 400.418C476.372 397.078 476.879 393.763 477.675 390.512C478.618 386.768 480.001 383.149 481.793 379.729C484.581 374.673 488.446 370.292 493.114 366.894C496.935 363.951 500.26 362.323 501.789 360.71Z" fill="#4EB15F"/>
<path d="M387.774 387.781C387.349 388.63 387.774 390.527 388.241 392.678C388.878 394.924 388.994 397.286 388.58 399.583C387.739 402.303 386.499 404.883 384.901 407.239C383.486 409.531 382.354 411.569 382.41 412.899C382.41 411.654 380.995 409.715 379.948 407.013C378.589 403.946 378.233 400.529 378.929 397.248C379.705 394.635 381.372 392.377 383.641 390.866C385.552 389.38 387.349 388.63 387.774 387.781Z" fill="#4EB15F"/>
<path d="M310.763 358.658C309.815 360.555 309.348 364.036 309.065 368.352C308.773 373.345 308.154 378.313 307.211 383.225C305.796 389.975 304.126 396.145 302.966 401.55C301.806 406.956 301.126 411.456 301.551 414.187C301.155 411.47 299.329 407.281 298.027 401.607C297.269 398.501 296.796 395.332 296.612 392.14C296.447 388.478 296.722 384.811 297.433 381.215C298.624 375.859 301.004 370.839 304.395 366.526C307.183 362.889 309.829 360.54 310.763 358.658Z" fill="#4EB15F"/>
<path d="M283.296 378.951C283.834 380.154 285.829 381.498 287.952 383.607C290.528 385.99 292.411 389.027 293.4 392.394C294.405 396.636 294.375 401.058 293.315 405.286C292.508 408.951 291.376 411.739 291.433 413.451C291.433 411.725 290.018 409.036 288.376 405.88C286.449 402.403 284.907 398.725 283.777 394.913C283.077 391.789 282.919 388.568 283.31 385.39C283.565 382.531 283.834 380.154 283.296 378.951Z" fill="#4EB15F"/>
<path d="M183.701 362.408C182.866 364.036 182.64 367.149 182.484 370.899C182.398 375.258 181.924 379.6 181.069 383.876C179.824 389.692 178.097 394.984 176.824 399.654C175.55 404.324 174.729 408.258 175.026 410.635C174.743 408.272 173.059 404.607 171.857 399.626C170.318 393.786 170.138 387.672 171.333 381.753C172.438 377.043 174.672 372.672 177.842 369.017C180.432 366.003 182.88 364.036 183.701 362.408Z" fill="#4EB15F"/>
<path d="M213.729 66.6934L215.144 70.6416C215.793 72.4022 216.816 74.001 218.142 75.3277C219.469 76.6544 221.068 77.6772 222.828 78.3256L226.776 79.7407L222.828 81.1558C221.067 81.8074 219.468 82.833 218.142 84.162C216.815 85.491 215.793 87.0917 215.144 88.854L213.729 92.788L212.314 88.854C211.663 87.0913 210.637 85.4905 209.308 84.1616C207.979 82.8327 206.379 81.8073 204.616 81.1558L200.682 79.7407L204.616 78.3256C206.378 77.6773 207.979 76.6546 209.308 75.3281C210.637 74.0015 211.662 72.4026 212.314 70.6416L213.729 66.6934Z" fill="url(#paint31_linear_18_329)"/>
<path d="M176.229 63.5378L177.178 66.0991C177.599 67.2422 178.264 68.2799 179.126 69.1401C179.989 70.0003 181.029 70.6624 182.173 71.0803L184.734 72.0284L182.173 72.9765C181.03 73.4018 179.993 74.068 179.131 74.93C178.269 75.792 177.603 76.8294 177.178 77.9719L176.229 80.5332L175.281 77.9719C174.856 76.8294 174.19 75.792 173.328 74.93C172.466 74.068 171.428 73.4018 170.286 72.9765L167.739 72.0284L170.286 71.0803C171.43 70.6624 172.47 70.0003 173.332 69.1401C174.195 68.2799 174.86 67.2422 175.281 66.0991L176.229 63.5378Z" fill="url(#paint32_linear_18_329)"/>
<path d="M236.965 63L237.376 64.1179C237.558 64.6145 237.845 65.0655 238.219 65.4395C238.593 65.8134 239.044 66.1013 239.541 66.283L240.659 66.6934L239.541 67.1038C239.045 67.2904 238.595 67.5816 238.221 67.9577C237.847 68.3337 237.559 68.7857 237.376 69.2831L236.965 70.401L236.541 69.2831C236.357 68.7857 236.069 68.3337 235.696 67.9577C235.322 67.5816 234.872 67.2904 234.376 67.1038L233.258 66.6934L234.376 66.283C234.872 66.1013 235.323 65.8134 235.697 65.4395C236.071 65.0655 236.359 64.6145 236.541 64.1179L236.965 63Z" fill="url(#paint33_linear_18_329)"/>
<path d="M258.575 79.7832L258.985 80.9011C259.172 81.3973 259.463 81.8474 259.839 82.221C260.215 82.5946 260.667 82.8829 261.164 83.0663L262.268 83.4766L261.164 83.887C260.668 84.0759 260.217 84.3678 259.841 84.7434C259.466 85.119 259.174 85.5698 258.985 86.0663L258.575 87.1842L258.164 86.0663C257.981 85.5689 257.693 85.1169 257.319 84.7409C256.945 84.3648 256.495 84.0736 255.999 83.887L254.881 83.4766L255.999 83.0663C256.496 82.8845 256.947 82.5966 257.321 82.2227C257.694 81.8487 257.982 81.3977 258.164 80.9011L258.575 79.7832Z" fill="url(#paint34_linear_18_329)"/>
<defs>
<linearGradient id="paint0_linear_18_329" x1="521.999" y1="224.514" x2="0.117728" y2="224.514" gradientUnits="userSpaceOnUse">
<stop stop-color="#E3FF9B"/>
<stop offset="1" stop-color="#9CFDBA"/>
</linearGradient>
<linearGradient id="paint1_linear_18_329" x1="267.679" y1="322.576" x2="329.395" y2="370.451" gradientUnits="userSpaceOnUse">
<stop stop-color="#E3FF9B"/>
<stop offset="1" stop-color="#9CFDBA"/>
</linearGradient>
<linearGradient id="paint2_linear_18_329" x1="149.805" y1="347.849" x2="198.02" y2="390.172" gradientUnits="userSpaceOnUse">
<stop stop-color="#E3FF9B"/>
<stop offset="1" stop-color="#9CFDBA"/>
</linearGradient>
<linearGradient id="paint3_linear_18_329" x1="457.021" y1="333.779" x2="512.236" y2="376.644" gradientUnits="userSpaceOnUse">
<stop stop-color="#E3FF9B"/>
<stop offset="1" stop-color="#9CFDBA"/>
</linearGradient>
<linearGradient id="paint4_linear_18_329" x1="426.16" y1="351.233" x2="472.204" y2="390.643" gradientUnits="userSpaceOnUse">
<stop stop-color="#E3FF9B"/>
<stop offset="1" stop-color="#9CFDBA"/>
</linearGradient>
<linearGradient id="paint5_linear_18_329" x1="441.229" y1="126.595" x2="441.229" y2="131.378" gradientUnits="userSpaceOnUse">
<stop stop-color="#90E344"/>
<stop offset="1" stop-color="#6CB42A"/>
</linearGradient>
<linearGradient id="paint6_linear_18_329" x1="441.229" y1="141.68" x2="441.229" y2="146.463" gradientUnits="userSpaceOnUse">
<stop stop-color="#90E344"/>
<stop offset="1" stop-color="#6CB42A"/>
</linearGradient>
<linearGradient id="paint7_linear_18_329" x1="441.229" y1="156.779" x2="441.229" y2="161.562" gradientUnits="userSpaceOnUse">
<stop stop-color="#90E344"/>
<stop offset="1" stop-color="#6CB42A"/>
</linearGradient>
<linearGradient id="paint8_linear_18_329" x1="395.564" y1="262.389" x2="395.564" y2="281.691" gradientUnits="userSpaceOnUse">
<stop stop-color="#90E344"/>
<stop offset="1" stop-color="#6CB42A"/>
</linearGradient>
<linearGradient id="paint9_linear_18_329" x1="371.662" y1="315.837" x2="371.662" y2="329.96" gradientUnits="userSpaceOnUse">
<stop stop-color="#90E344"/>
<stop offset="1" stop-color="#6CB42A"/>
</linearGradient>
<linearGradient id="paint10_linear_18_329" x1="419.45" y1="335.606" x2="419.45" y2="349.729" gradientUnits="userSpaceOnUse">
<stop stop-color="#90E344"/>
<stop offset="1" stop-color="#6CB42A"/>
</linearGradient>
<linearGradient id="paint11_linear_18_329" x1="325.318" y1="296.716" x2="325.318" y2="115.738" gradientUnits="userSpaceOnUse">
<stop stop-color="#FEFEFE"/>
<stop offset="1" stop-color="#86D63D"/>
</linearGradient>
<linearGradient id="paint12_linear_18_329" x1="222.079" y1="136.048" x2="198.772" y2="199.331" gradientUnits="userSpaceOnUse">
<stop stop-color="#1D325F"/>
<stop offset="1" stop-color="#00030E"/>
</linearGradient>
<linearGradient id="paint13_linear_18_329" x1="178.039" y1="291.158" x2="178.039" y2="200.745" gradientUnits="userSpaceOnUse">
<stop stop-color="#77D28C"/>
<stop offset="1" stop-color="#345C58"/>
</linearGradient>
<linearGradient id="paint14_linear_18_329" x1="215.483" y1="312.031" x2="215.483" y2="195.115" gradientUnits="userSpaceOnUse">
<stop stop-color="#77D28C"/>
<stop offset="1" stop-color="#345C58"/>
</linearGradient>
<linearGradient id="paint15_linear_18_329" x1="252.153" y1="235.459" x2="252.153" y2="195.85" gradientUnits="userSpaceOnUse">
<stop stop-color="#77D28C"/>
<stop offset="1" stop-color="#345C58"/>
</linearGradient>
<linearGradient id="paint16_linear_18_329" x1="244.419" y1="241.997" x2="244.419" y2="201.017" gradientUnits="userSpaceOnUse">
<stop stop-color="#77D28C"/>
<stop offset="1" stop-color="#345C58"/>
</linearGradient>
<linearGradient id="paint17_linear_18_329" x1="201.902" y1="426.244" x2="201.902" y2="304.373" gradientUnits="userSpaceOnUse">
<stop stop-color="#77D28C"/>
<stop offset="1" stop-color="#345C58"/>
</linearGradient>
<linearGradient id="paint18_linear_18_329" x1="227.159" y1="428.243" x2="227.159" y2="304.199" gradientUnits="userSpaceOnUse">
<stop stop-color="#77D28C"/>
<stop offset="1" stop-color="#345C58"/>
</linearGradient>
<linearGradient id="paint19_linear_18_329" x1="302.669" y1="286.106" x2="226.169" y2="439.107" gradientUnits="userSpaceOnUse">
<stop stop-color="#1D325F"/>
<stop offset="1" stop-color="#00030E"/>
</linearGradient>
<linearGradient id="paint20_linear_18_329" x1="275.584" y1="272.563" x2="199.083" y2="425.565" gradientUnits="userSpaceOnUse">
<stop stop-color="#1D325F"/>
<stop offset="1" stop-color="#00030E"/>
</linearGradient>
<linearGradient id="paint21_linear_18_329" x1="322.736" y1="77.887" x2="322.736" y2="103.982" gradientUnits="userSpaceOnUse">
<stop stop-color="#90E344"/>
<stop offset="1" stop-color="#6CB42A"/>
</linearGradient>
<linearGradient id="paint22_linear_18_329" x1="471.519" y1="139.487" x2="471.519" y2="165.567" gradientUnits="userSpaceOnUse">
<stop stop-color="#90E344"/>
<stop offset="1" stop-color="#6CB42A"/>
</linearGradient>
<linearGradient id="paint23_linear_18_329" x1="163.139" y1="286.728" x2="163.139" y2="312.823" gradientUnits="userSpaceOnUse">
<stop stop-color="#90E344"/>
<stop offset="1" stop-color="#6CB42A"/>
</linearGradient>
<linearGradient id="paint24_linear_18_329" x1="436.871" y1="203.775" x2="436.871" y2="220.756" gradientUnits="userSpaceOnUse">
<stop stop-color="#90E344"/>
<stop offset="1" stop-color="#6CB42A"/>
</linearGradient>
<linearGradient id="paint25_linear_18_329" x1="424.679" y1="226.643" x2="424.679" y2="234.044" gradientUnits="userSpaceOnUse">
<stop stop-color="#90E344"/>
<stop offset="1" stop-color="#6CB42A"/>
</linearGradient>
<linearGradient id="paint26_linear_18_329" x1="264.235" y1="290.79" x2="264.235" y2="298.177" gradientUnits="userSpaceOnUse">
<stop stop-color="#90E344"/>
<stop offset="1" stop-color="#6CB42A"/>
</linearGradient>
<linearGradient id="paint27_linear_18_329" x1="458.43" y1="241.473" x2="458.43" y2="248.874" gradientUnits="userSpaceOnUse">
<stop stop-color="#90E344"/>
<stop offset="1" stop-color="#6CB42A"/>
</linearGradient>
<linearGradient id="paint28_linear_18_329" x1="150.05" y1="271.757" x2="150.05" y2="279.158" gradientUnits="userSpaceOnUse">
<stop stop-color="#90E344"/>
<stop offset="1" stop-color="#6CB42A"/>
</linearGradient>
<linearGradient id="paint29_linear_18_329" x1="355.799" y1="101.618" x2="355.799" y2="109.005" gradientUnits="userSpaceOnUse">
<stop stop-color="#90E344"/>
<stop offset="1" stop-color="#6CB42A"/>
</linearGradient>
<linearGradient id="paint30_linear_18_329" x1="315.338" y1="338.602" x2="365.993" y2="373.661" gradientUnits="userSpaceOnUse">
<stop stop-color="#E3FF9B"/>
<stop offset="1" stop-color="#9CFDBA"/>
</linearGradient>
<linearGradient id="paint31_linear_18_329" x1="213.729" y1="66.6934" x2="213.729" y2="92.788" gradientUnits="userSpaceOnUse">
<stop stop-color="#90E344"/>
<stop offset="1" stop-color="#6CB42A"/>
</linearGradient>
<linearGradient id="paint32_linear_18_329" x1="176.236" y1="63.5378" x2="176.236" y2="80.5332" gradientUnits="userSpaceOnUse">
<stop stop-color="#90E344"/>
<stop offset="1" stop-color="#6CB42A"/>
</linearGradient>
<linearGradient id="paint33_linear_18_329" x1="236.958" y1="63" x2="236.958" y2="70.401" gradientUnits="userSpaceOnUse">
<stop stop-color="#90E344"/>
<stop offset="1" stop-color="#6CB42A"/>
</linearGradient>
<linearGradient id="paint34_linear_18_329" x1="258.575" y1="79.7832" x2="258.575" y2="87.1842" gradientUnits="userSpaceOnUse">
<stop stop-color="#90E344"/>
<stop offset="1" stop-color="#6CB42A"/>
</linearGradient>
</defs>
</svg>
